<svg id="visual" viewBox="0 0 500 600" width="500" height="600" xmlns="http://www.w3.org/2000/svg" xmlns:xlink="http://www.w3.org/1999/xlink" version="1.1"><g transform="translate(282.7212468303762 287.5447715071555)"><path d="M96.1 -157.8C115 -137.3 114.4 -94.6 121.3 -60.9C128.3 -27.1 142.8 -2.2 140.2 20.6C137.7 43.5 118 64.3 98.1 82.1C78.2 99.9 58.1 114.7 30 140.5C1.9 166.3 -34.3 203.1 -61.7 199.7C-89 196.4 -107.6 152.9 -134.8 118.5C-162 84.1 -197.8 58.8 -204.7 27.9C-211.5 -3.1 -189.4 -39.8 -166.8 -70.7C-144.2 -101.7 -121 -127 -93.1 -143.4C-65.2 -159.8 -32.6 -167.4 3 -172C38.6 -176.7 77.1 -178.4 96.1 -157.8" fill="#FDC500"></path></g></svg>