<svg id="visual" viewBox="0 0 500 600" width="500" height="600" xmlns="http://www.w3.org/2000/svg" xmlns:xlink="http://www.w3.org/1999/xlink" version="1.1"><g transform="translate(238.35486011128657 295.0029821290683)"><path d="M117.1 -148.6C149.1 -137.8 170.6 -100.1 189 -58C207.3 -15.9 222.5 30.7 213.5 72.8C204.6 114.9 171.3 152.5 131.7 160.5C92.1 168.4 46 146.7 0 146.7C-46 146.7 -92.1 168.4 -123.8 157.9C-155.5 147.3 -172.9 104.6 -183.4 62C-194 19.4 -197.8 -23.1 -183.7 -57.5C-169.5 -91.9 -137.4 -118.4 -103.7 -128.6C-70.1 -138.9 -35.1 -132.9 3.7 -138.1C42.5 -143.2 85 -159.4 117.1 -148.6" fill="#FDC500"></path></g></svg>