<svg id="visual" viewBox="0 0 500 600" width="500" height="600" xmlns="http://www.w3.org/2000/svg" xmlns:xlink="http://www.w3.org/1999/xlink" version="1.1"><g transform="translate(272.55358482184795 342.72376542865067)"><path d="M96.9 -200.4C113.8 -158.1 107.7 -108.3 113.5 -73.7C119.3 -39.1 137.2 -19.5 152.7 9C168.3 37.5 181.6 75 172.5 104C163.4 133 132 153.5 99.5 166.3C67 179 33.5 184 -2.2 187.8C-37.8 191.5 -75.7 194.1 -109.3 182C-142.9 169.9 -172.4 143.2 -190.6 110.4C-208.9 77.7 -215.9 38.8 -219.1 -1.8C-222.3 -42.5 -221.6 -85 -203.6 -118.3C-185.7 -151.7 -150.6 -175.9 -113.8 -206.7C-77 -237.5 -38.5 -275 0.7 -276.3C40 -277.6 80 -242.7 96.9 -200.4" fill="#FDC500"></path></g></svg>